<svg xmlns="http://www.w3.org/2000/svg" xmlns:xlink="http://www.w3.org/1999/xlink" width="1.111in" height="1.019in" viewBox="0 0 80 73.333">
  <defs>
    <clipPath id="a">
      <rect x="22.677" y="13.89" width="37.507" height="43.429" fill="none"/>
    </clipPath>
    <clipPath id="b">
      <rect x="39.87" y="12.365" width="39.158" height="40.954" fill="none"/>
    </clipPath>
  </defs>
  <title>CPHL_CustomIcons_Final</title>
  <g>
    <g>
      <g clip-path="url(#a)">
        <path d="M103.958,16.53a1,1,0,1,1-1.415,0A1,1,0,0,1,103.958,16.53Zm-4.758.707a1,1,0,1,0,1-1A1,1,0,0,0,99.2,17.237Zm-2.757-.707a1,1,0,1,0,1.415,0A1,1,0,0,0,96.443,16.53Zm-3.343.707a1,1,0,1,0,1-1A1,1,0,0,0,93.1,17.237Zm-2.757-.707a1,1,0,1,0,1.415,0A1,1,0,0,0,90.344,16.53ZM87,17.237a1,1,0,1,0,1-1A1,1,0,0,0,87,17.237Zm-2.757-.707a1,1,0,1,0,1.415,0A1,1,0,0,0,84.244,16.53Zm-3.343.707a1,1,0,1,0,1-1A1,1,0,0,0,80.9,17.237Zm-2.757-.707a1,1,0,1,0,1.415,0A1,1,0,0,0,78.145,16.53Zm-3.343.707a1,1,0,1,0,1-1A1,1,0,0,0,74.8,17.237Zm-2.757-.707a1,1,0,1,0,1.415,0A1,1,0,0,0,72.046,16.53Zm-3.343.707a1,1,0,1,0,1-1A1,1,0,0,0,68.7,17.237Zm-2.757-.707a1,1,0,1,0,1.415,0A1,1,0,0,0,65.946,16.53Zm-3.343.707a1,1,0,1,0,1-1A1,1,0,0,0,62.6,17.237Zm-2.757-.707a1,1,0,1,0,1.415,0A1,1,0,0,0,59.847,16.53Zm-3.343.707a1,1,0,1,0,1-1A1,1,0,0,0,56.5,17.237Zm-2.757-.707a1,1,0,1,0,1.415,0A1,1,0,0,0,53.747,16.53Zm-3.343.707a1,1,0,1,0,1-1A1,1,0,0,0,50.4,17.237Zm-2.757-.707a1,1,0,1,0,1.415,0A1,1,0,0,0,47.648,16.53Zm-3.343.707a1,1,0,1,0,1-1A1,1,0,0,0,44.305,17.237Zm-2.757-.707a1,1,0,1,0,1.415,0A1,1,0,0,0,41.549,16.53Zm-3.343.707a1,1,0,1,0,1-1A1,1,0,0,0,38.206,17.237Zm-2.757-.707a1,1,0,1,0,1.415,0A1,1,0,0,0,35.449,16.53Zm-3.343.707a1,1,0,1,0,1-1A1,1,0,0,0,32.106,17.237ZM29.35,16.53a1,1,0,1,0,1.415,0A1,1,0,0,0,29.35,16.53Zm-3.343.707a1,1,0,1,0,1-1A1,1,0,0,0,26.007,17.237ZM23.25,16.53a1,1,0,1,0,1.415,0A1,1,0,0,0,23.25,16.53Zm-3.343.707a1,1,0,1,0,1-1A1,1,0,0,0,19.908,17.237Zm-2.757-.707a1,1,0,1,0,1.415,0A1,1,0,0,0,17.151,16.53Zm-3.343.707a1,1,0,1,0,1-1A1,1,0,0,0,13.808,17.237Zm-2.757-.707a1,1,0,1,0,1.415,0A1,1,0,0,0,11.051,16.53Zm-3.343.707a1,1,0,1,0,1-1A1,1,0,0,0,7.709,17.237Zm96.335-3.495a1,1,0,1,0,1.415,0A1,1,0,0,0,104.043,13.742Zm-3.343.707a1,1,0,1,0,1-1A1,1,0,0,0,100.7,14.45Zm-2.757-.707a1,1,0,1,0,1.415,0A1,1,0,0,0,97.944,13.742ZM94.6,14.45a1,1,0,1,0,1-1A1,1,0,0,0,94.6,14.45Zm-2.757-.707a1,1,0,1,0,1.415,0A1,1,0,0,0,91.845,13.742ZM88.5,14.45a1,1,0,1,0,1-1A1,1,0,0,0,88.5,14.45Zm-2.757-.707a1,1,0,1,0,1.415,0A1,1,0,0,0,85.745,13.742ZM82.4,14.45a1,1,0,1,0,1-1A1,1,0,0,0,82.4,14.45Zm-2.757-.707a1,1,0,1,0,1.415,0A1,1,0,0,0,79.646,13.742ZM76.3,14.45a1,1,0,1,0,1-1A1,1,0,0,0,76.3,14.45Zm-2.757-.707a1,1,0,1,0,1.415,0A1,1,0,0,0,73.546,13.742ZM70.2,14.45a1,1,0,1,0,1-1A1,1,0,0,0,70.2,14.45Zm-2.757-.707a1,1,0,1,0,1.415,0A1,1,0,0,0,67.447,13.742ZM64.1,14.45a1,1,0,1,0,1-1A1,1,0,0,0,64.1,14.45Zm-2.757-.707a1,1,0,1,0,1.415,0A1,1,0,0,0,61.347,13.742ZM58,14.45a1,1,0,1,0,1-1A1,1,0,0,0,58,14.45Zm-2.757-.707a1,1,0,1,0,1.415,0A1,1,0,0,0,55.248,13.742Zm-3.343.707a1,1,0,1,0,1-1A1,1,0,0,0,51.905,14.45Zm-2.757-.707a1,1,0,1,0,1.415,0A1,1,0,0,0,49.149,13.742Zm-3.343.707a1,1,0,1,0,1-1A1,1,0,0,0,45.806,14.45Zm-2.757-.707a1,1,0,1,0,1.415,0A1,1,0,0,0,43.049,13.742Zm-3.343.707a1,1,0,1,0,1-1A1,1,0,0,0,39.706,14.45Zm-2.757-.707a1,1,0,1,0,1.415,0A1,1,0,0,0,36.95,13.742Zm-3.343.707a1,1,0,1,0,1-1A1,1,0,0,0,33.607,14.45Zm-2.757-.707a1,1,0,1,0,1.415,0A1,1,0,0,0,30.85,13.742Zm-3.343.707a1,1,0,1,0,1-1A1,1,0,0,0,27.508,14.45Zm-2.757-.707a1,1,0,1,0,1.415,0A1,1,0,0,0,24.751,13.742Zm-3.343.707a1,1,0,1,0,1-1A1,1,0,0,0,21.408,14.45Zm-2.757-.707a1,1,0,1,0,1.415,0A1,1,0,0,0,18.652,13.742Zm-3.343.707a1,1,0,1,0,1-1A1,1,0,0,0,15.309,14.45Zm-2.757-.707a1,1,0,1,0,1.415,0A1,1,0,0,0,12.552,13.742Zm-3.343.707a1,1,0,1,0,1-1A1,1,0,0,0,9.209,14.45ZM102.543,22.1a1,1,0,1,0,1.415,0A1,1,0,0,0,102.543,22.1Zm-3.343.707a1,1,0,1,0,1-1A1,1,0,0,0,99.2,22.812ZM96.443,22.1a1,1,0,1,0,1.415,0A1,1,0,0,0,96.443,22.1Zm-3.343.707a1,1,0,1,0,1-1A1,1,0,0,0,93.1,22.812ZM90.344,22.1a1,1,0,1,0,1.415,0A1,1,0,0,0,90.344,22.1ZM87,22.812a1,1,0,1,0,1-1A1,1,0,0,0,87,22.812ZM84.244,22.1a1,1,0,1,0,1.415,0A1,1,0,0,0,84.244,22.1Zm-3.343.707a1,1,0,1,0,1-1A1,1,0,0,0,80.9,22.812ZM78.145,22.1a1,1,0,1,0,1.415,0A1,1,0,0,0,78.145,22.1Zm-3.343.707a1,1,0,1,0,1-1A1,1,0,0,0,74.8,22.812ZM72.046,22.1a1,1,0,1,0,1.415,0A1,1,0,0,0,72.046,22.1Zm-3.343.707a1,1,0,1,0,1-1A1,1,0,0,0,68.7,22.812ZM65.946,22.1a1,1,0,1,0,1.415,0A1,1,0,0,0,65.946,22.1Zm-3.343.707a1,1,0,1,0,1-1A1,1,0,0,0,62.6,22.812ZM59.847,22.1a1,1,0,1,0,1.415,0A1,1,0,0,0,59.847,22.1Zm-3.343.707a1,1,0,1,0,1-1A1,1,0,0,0,56.5,22.812ZM53.747,22.1a1,1,0,1,0,1.415,0A1,1,0,0,0,53.747,22.1Zm-3.343.707a1,1,0,1,0,1-1A1,1,0,0,0,50.4,22.812ZM47.648,22.1a1,1,0,1,0,1.415,0A1,1,0,0,0,47.648,22.1Zm-3.343.707a1,1,0,1,0,1-1A1,1,0,0,0,44.305,22.812ZM41.549,22.1a1,1,0,1,0,1.415,0A1,1,0,0,0,41.549,22.1Zm-3.343.707a1,1,0,1,0,1-1A1,1,0,0,0,38.206,22.812ZM35.449,22.1a1,1,0,1,0,1.415,0A1,1,0,0,0,35.449,22.1Zm-3.343.707a1,1,0,1,0,1-1A1,1,0,0,0,32.106,22.812ZM29.35,22.1a1,1,0,1,0,1.415,0A1,1,0,0,0,29.35,22.1Zm-3.343.707a1,1,0,1,0,1-1A1,1,0,0,0,26.007,22.812ZM23.25,22.1a1,1,0,1,0,1.415,0A1,1,0,0,0,23.25,22.1Zm-3.343.707a1,1,0,1,0,1-1A1,1,0,0,0,19.908,22.812ZM17.151,22.1a1,1,0,1,0,1.415,0A1,1,0,0,0,17.151,22.1Zm-3.343.707a1,1,0,1,0,1-1A1,1,0,0,0,13.808,22.812ZM11.051,22.1a1,1,0,1,0,1.415,0A1,1,0,0,0,11.051,22.1Zm-3.343.707a1,1,0,1,0,1-1A1,1,0,0,0,7.709,22.812Zm96.335-3.495a1,1,0,1,0,1.415,0A1,1,0,0,0,104.043,19.317Zm-3.343.707a1,1,0,1,0,1-1A1,1,0,0,0,100.7,20.024Zm-2.757-.707a1,1,0,1,0,1.415,0A1,1,0,0,0,97.944,19.317Zm-3.343.707a1,1,0,1,0,1-1A1,1,0,0,0,94.6,20.024Zm-2.757-.707a1,1,0,1,0,1.415,0A1,1,0,0,0,91.845,19.317Zm-3.343.707a1,1,0,1,0,1-1A1,1,0,0,0,88.5,20.024Zm-2.757-.707a1,1,0,1,0,1.415,0A1,1,0,0,0,85.745,19.317Zm-3.343.707a1,1,0,1,0,1-1A1,1,0,0,0,82.4,20.024Zm-2.757-.707a1,1,0,1,0,1.415,0A1,1,0,0,0,79.646,19.317Zm-3.343.707a1,1,0,1,0,1-1A1,1,0,0,0,76.3,20.024Zm-2.757-.707a1,1,0,1,0,1.415,0A1,1,0,0,0,73.546,19.317Zm-3.343.707a1,1,0,1,0,1-1A1,1,0,0,0,70.2,20.024Zm-2.757-.707a1,1,0,1,0,1.415,0A1,1,0,0,0,67.447,19.317Zm-3.343.707a1,1,0,1,0,1-1A1,1,0,0,0,64.1,20.024Zm-2.757-.707a1,1,0,1,0,1.415,0A1,1,0,0,0,61.347,19.317ZM58,20.024a1,1,0,1,0,1-1A1,1,0,0,0,58,20.024Zm-2.757-.707a1,1,0,1,0,1.415,0A1,1,0,0,0,55.248,19.317Zm-3.343.707a1,1,0,1,0,1-1A1,1,0,0,0,51.905,20.024Zm-2.757-.707a1,1,0,1,0,1.415,0A1,1,0,0,0,49.149,19.317Zm-3.343.707a1,1,0,1,0,1-1A1,1,0,0,0,45.806,20.024Zm-2.757-.707a1,1,0,1,0,1.415,0A1,1,0,0,0,43.049,19.317Zm-3.343.707a1,1,0,1,0,1-1A1,1,0,0,0,39.706,20.024Zm-2.757-.707a1,1,0,1,0,1.415,0A1,1,0,0,0,36.95,19.317Zm-3.343.707a1,1,0,1,0,1-1A1,1,0,0,0,33.607,20.024Zm-2.757-.707a1,1,0,1,0,1.415,0A1,1,0,0,0,30.85,19.317Zm-3.343.707a1,1,0,1,0,1-1A1,1,0,0,0,27.508,20.024Zm-2.757-.707a1,1,0,1,0,1.415,0A1,1,0,0,0,24.751,19.317Zm-3.343.707a1,1,0,1,0,1-1A1,1,0,0,0,21.408,20.024Zm-2.757-.707a1,1,0,1,0,1.415,0A1,1,0,0,0,18.652,19.317Zm-3.343.707a1,1,0,1,0,1-1A1,1,0,0,0,15.309,20.024Zm-2.757-.707a1,1,0,1,0,1.415,0A1,1,0,0,0,12.552,19.317Zm-3.343.707a1,1,0,1,0,1-1A1,1,0,0,0,9.209,20.024Zm93.333,7.655a1,1,0,1,0,1.415,0A1,1,0,0,0,102.543,27.679Zm-3.343.707a1,1,0,1,0,1-1A1,1,0,0,0,99.2,28.387Zm-2.757-.707a1,1,0,1,0,1.415,0A1,1,0,0,0,96.443,27.679Zm-3.343.707a1,1,0,1,0,1-1A1,1,0,0,0,93.1,28.387Zm-2.757-.707a1,1,0,1,0,1.415,0A1,1,0,0,0,90.344,27.679ZM87,28.387a1,1,0,1,0,1-1A1,1,0,0,0,87,28.387Zm-2.757-.707a1,1,0,1,0,1.415,0A1,1,0,0,0,84.244,27.679Zm-3.343.707a1,1,0,1,0,1-1A1,1,0,0,0,80.9,28.387Zm-2.757-.707a1,1,0,1,0,1.415,0A1,1,0,0,0,78.145,27.679Zm-3.343.707a1,1,0,1,0,1-1A1,1,0,0,0,74.8,28.387Zm-2.757-.707a1,1,0,1,0,1.415,0A1,1,0,0,0,72.046,27.679Zm-3.343.707a1,1,0,1,0,1-1A1,1,0,0,0,68.7,28.387Zm-2.757-.707a1,1,0,1,0,1.415,0A1,1,0,0,0,65.946,27.679Zm-3.343.707a1,1,0,1,0,1-1A1,1,0,0,0,62.6,28.387Zm-2.757-.707a1,1,0,1,0,1.415,0A1,1,0,0,0,59.847,27.679Zm-3.343.707a1,1,0,1,0,1-1A1,1,0,0,0,56.5,28.387Zm-2.757-.707a1,1,0,1,0,1.415,0A1,1,0,0,0,53.747,27.679Zm-3.343.707a1,1,0,1,0,1-1A1,1,0,0,0,50.4,28.387Zm-2.757-.707a1,1,0,1,0,1.415,0A1,1,0,0,0,47.648,27.679Zm-3.343.707a1,1,0,1,0,1-1A1,1,0,0,0,44.305,28.387Zm-2.757-.707a1,1,0,1,0,1.415,0A1,1,0,0,0,41.549,27.679Zm-3.343.707a1,1,0,1,0,1-1A1,1,0,0,0,38.206,28.387Zm-2.757-.707a1,1,0,1,0,1.415,0A1,1,0,0,0,35.449,27.679Zm-3.343.707a1,1,0,1,0,1-1A1,1,0,0,0,32.106,28.387Zm-2.757-.707a1,1,0,1,0,1.415,0A1,1,0,0,0,29.35,27.679Zm-3.343.707a1,1,0,1,0,1-1A1,1,0,0,0,26.007,28.387Zm-2.757-.707a1,1,0,1,0,1.415,0A1,1,0,0,0,23.25,27.679Zm-3.343.707a1,1,0,1,0,1-1A1,1,0,0,0,19.908,28.387Zm-2.757-.707a1,1,0,1,0,1.415,0A1,1,0,0,0,17.151,27.679Zm-3.343.707a1,1,0,1,0,1-1A1,1,0,0,0,13.808,28.387Zm-2.757-.707a1,1,0,1,0,1.415,0A1,1,0,0,0,11.051,27.679Zm-3.343.707a1,1,0,1,0,1-1A1,1,0,0,0,7.709,28.387Zm96.335-3.495a1,1,0,1,0,1.415,0A1,1,0,0,0,104.043,24.892ZM100.7,25.6a1,1,0,1,0,1-1A1,1,0,0,0,100.7,25.6Zm-2.757-.707a1,1,0,1,0,1.415,0A1,1,0,0,0,97.944,24.892ZM94.6,25.6a1,1,0,1,0,1-1A1,1,0,0,0,94.6,25.6Zm-2.757-.707a1,1,0,1,0,1.415,0A1,1,0,0,0,91.845,24.892ZM88.5,25.6a1,1,0,1,0,1-1A1,1,0,0,0,88.5,25.6Zm-2.757-.707a1,1,0,1,0,1.415,0A1,1,0,0,0,85.745,24.892ZM82.4,25.6a1,1,0,1,0,1-1A1,1,0,0,0,82.4,25.6Zm-2.757-.707a1,1,0,1,0,1.415,0A1,1,0,0,0,79.646,24.892ZM76.3,25.6a1,1,0,1,0,1-1A1,1,0,0,0,76.3,25.6Zm-2.757-.707a1,1,0,1,0,1.415,0A1,1,0,0,0,73.546,24.892ZM70.2,25.6a1,1,0,1,0,1-1A1,1,0,0,0,70.2,25.6Zm-2.757-.707a1,1,0,1,0,1.415,0A1,1,0,0,0,67.447,24.892ZM64.1,25.6a1,1,0,1,0,1-1A1,1,0,0,0,64.1,25.6Zm-2.757-.707a1,1,0,1,0,1.415,0A1,1,0,0,0,61.347,24.892ZM58,25.6a1,1,0,1,0,1-1A1,1,0,0,0,58,25.6Zm-2.757-.707a1,1,0,1,0,1.415,0A1,1,0,0,0,55.248,24.892Zm-3.343.707a1,1,0,1,0,1-1A1,1,0,0,0,51.905,25.6Zm-2.757-.707a1,1,0,1,0,1.415,0A1,1,0,0,0,49.149,24.892Zm-3.343.707a1,1,0,1,0,1-1A1,1,0,0,0,45.806,25.6Zm-2.757-.707a1,1,0,1,0,1.415,0A1,1,0,0,0,43.049,24.892Zm-3.343.707a1,1,0,1,0,1-1A1,1,0,0,0,39.706,25.6Zm-2.757-.707a1,1,0,1,0,1.415,0A1,1,0,0,0,36.95,24.892Zm-3.343.707a1,1,0,1,0,1-1A1,1,0,0,0,33.607,25.6Zm-2.757-.707a1,1,0,1,0,1.415,0A1,1,0,0,0,30.85,24.892Zm-3.343.707a1,1,0,1,0,1-1A1,1,0,0,0,27.508,25.6Zm-2.757-.707a1,1,0,1,0,1.415,0A1,1,0,0,0,24.751,24.892Zm-3.343.707a1,1,0,1,0,1-1A1,1,0,0,0,21.408,25.6Zm-2.757-.707a1,1,0,1,0,1.415,0A1,1,0,0,0,18.652,24.892Zm-3.343.707a1,1,0,1,0,1-1A1,1,0,0,0,15.309,25.6Zm-2.757-.707a1,1,0,1,0,1.415,0A1,1,0,0,0,12.552,24.892ZM9.209,25.6a1,1,0,1,0,1-1A1,1,0,0,0,9.209,25.6Zm93.333,7.655a1,1,0,1,0,1.415,0A1,1,0,0,0,102.543,33.254Zm-3.343.707a1,1,0,1,0,1-1A1,1,0,0,0,99.2,33.961Zm-2.757-.707a1,1,0,1,0,1.415,0A1,1,0,0,0,96.443,33.254Zm-3.343.707a1,1,0,1,0,1-1A1,1,0,0,0,93.1,33.961Zm-2.757-.707a1,1,0,1,0,1.415,0A1,1,0,0,0,90.344,33.254ZM87,33.961a1,1,0,1,0,1-1A1,1,0,0,0,87,33.961Zm-2.757-.707a1,1,0,1,0,1.415,0A1,1,0,0,0,84.244,33.254Zm-3.343.707a1,1,0,1,0,1-1A1,1,0,0,0,80.9,33.961Zm-2.757-.707a1,1,0,1,0,1.415,0A1,1,0,0,0,78.145,33.254Zm-3.343.707a1,1,0,1,0,1-1A1,1,0,0,0,74.8,33.961Zm-2.757-.707a1,1,0,1,0,1.415,0A1,1,0,0,0,72.046,33.254Zm-3.343.707a1,1,0,1,0,1-1A1,1,0,0,0,68.7,33.961Zm-2.757-.707a1,1,0,1,0,1.415,0A1,1,0,0,0,65.946,33.254Zm-3.343.707a1,1,0,1,0,1-1A1,1,0,0,0,62.6,33.961Zm-2.757-.707a1,1,0,1,0,1.415,0A1,1,0,0,0,59.847,33.254Zm-3.343.707a1,1,0,1,0,1-1A1,1,0,0,0,56.5,33.961Zm-2.757-.707a1,1,0,1,0,1.415,0A1,1,0,0,0,53.747,33.254Zm-3.343.707a1,1,0,1,0,1-1A1,1,0,0,0,50.4,33.961Zm-2.757-.707a1,1,0,1,0,1.415,0A1,1,0,0,0,47.648,33.254Zm-3.343.707a1,1,0,1,0,1-1A1,1,0,0,0,44.305,33.961Zm-2.757-.707a1,1,0,1,0,1.415,0A1,1,0,0,0,41.549,33.254Zm-3.343.707a1,1,0,1,0,1-1A1,1,0,0,0,38.206,33.961Zm-2.757-.707a1,1,0,1,0,1.415,0A1,1,0,0,0,35.449,33.254Zm-3.343.707a1,1,0,1,0,1-1A1,1,0,0,0,32.106,33.961Zm-2.757-.707a1,1,0,1,0,1.415,0A1,1,0,0,0,29.35,33.254Zm-3.343.707a1,1,0,1,0,1-1A1,1,0,0,0,26.007,33.961Zm-2.757-.707a1,1,0,1,0,1.415,0A1,1,0,0,0,23.25,33.254Zm-3.343.707a1,1,0,1,0,1-1A1,1,0,0,0,19.908,33.961Zm-2.757-.707a1,1,0,1,0,1.415,0A1,1,0,0,0,17.151,33.254Zm-3.343.707a1,1,0,1,0,1-1A1,1,0,0,0,13.808,33.961Zm-2.757-.707a1,1,0,1,0,1.415,0A1,1,0,0,0,11.051,33.254Zm-3.343.707a1,1,0,1,0,1-1A1,1,0,0,0,7.709,33.961Zm96.335-3.495a1,1,0,1,0,1.415,0A1,1,0,0,0,104.043,30.467Zm-3.343.707a1,1,0,1,0,1-1A1,1,0,0,0,100.7,31.174Zm-2.757-.707a1,1,0,1,0,1.415,0A1,1,0,0,0,97.944,30.467Zm-3.343.707a1,1,0,1,0,1-1A1,1,0,0,0,94.6,31.174Zm-2.757-.707a1,1,0,1,0,1.415,0A1,1,0,0,0,91.845,30.467Zm-3.343.707a1,1,0,1,0,1-1A1,1,0,0,0,88.5,31.174Zm-2.757-.707a1,1,0,1,0,1.415,0A1,1,0,0,0,85.745,30.467Zm-3.343.707a1,1,0,1,0,1-1A1,1,0,0,0,82.4,31.174Zm-2.757-.707a1,1,0,1,0,1.415,0A1,1,0,0,0,79.646,30.467Zm-3.343.707a1,1,0,1,0,1-1A1,1,0,0,0,76.3,31.174Zm-2.757-.707a1,1,0,1,0,1.415,0A1,1,0,0,0,73.546,30.467Zm-3.343.707a1,1,0,1,0,1-1A1,1,0,0,0,70.2,31.174Zm-2.757-.707a1,1,0,1,0,1.415,0A1,1,0,0,0,67.447,30.467Zm-3.343.707a1,1,0,1,0,1-1A1,1,0,0,0,64.1,31.174Zm-2.757-.707a1,1,0,1,0,1.415,0A1,1,0,0,0,61.347,30.467ZM58,31.174a1,1,0,1,0,1-1A1,1,0,0,0,58,31.174Zm-2.757-.707a1,1,0,1,0,1.415,0A1,1,0,0,0,55.248,30.467Zm-3.343.707a1,1,0,1,0,1-1A1,1,0,0,0,51.905,31.174Zm-2.757-.707a1,1,0,1,0,1.415,0A1,1,0,0,0,49.149,30.467Zm-3.343.707a1,1,0,1,0,1-1A1,1,0,0,0,45.806,31.174Zm-2.757-.707a1,1,0,1,0,1.415,0A1,1,0,0,0,43.049,30.467Zm-3.343.707a1,1,0,1,0,1-1A1,1,0,0,0,39.706,31.174Zm-2.757-.707a1,1,0,1,0,1.415,0A1,1,0,0,0,36.95,30.467Zm-3.343.707a1,1,0,1,0,1-1A1,1,0,0,0,33.607,31.174Zm-2.757-.707a1,1,0,1,0,1.415,0A1,1,0,0,0,30.85,30.467Zm-3.343.707a1,1,0,1,0,1-1A1,1,0,0,0,27.508,31.174Zm-2.757-.707a1,1,0,1,0,1.415,0A1,1,0,0,0,24.751,30.467Zm-3.343.707a1,1,0,1,0,1-1A1,1,0,0,0,21.408,31.174Zm-2.757-.707a1,1,0,1,0,1.415,0A1,1,0,0,0,18.652,30.467Zm-3.343.707a1,1,0,1,0,1-1A1,1,0,0,0,15.309,31.174Zm-2.757-.707a1,1,0,1,0,1.415,0A1,1,0,0,0,12.552,30.467Zm-3.343.707a1,1,0,1,0,1-1A1,1,0,0,0,9.209,31.174Zm93.333,7.655a1,1,0,1,0,1.415,0A1,1,0,0,0,102.543,38.829Zm-3.343.707a1,1,0,1,0,1-1A1,1,0,0,0,99.2,39.536Zm-2.757-.707a1,1,0,1,0,1.415,0A1,1,0,0,0,96.443,38.829Zm-3.343.707a1,1,0,1,0,1-1A1,1,0,0,0,93.1,39.536Zm-2.757-.707a1,1,0,1,0,1.415,0A1,1,0,0,0,90.344,38.829ZM87,39.536a1,1,0,1,0,1-1A1,1,0,0,0,87,39.536Zm-2.757-.707a1,1,0,1,0,1.415,0A1,1,0,0,0,84.244,38.829Zm-3.343.707a1,1,0,1,0,1-1A1,1,0,0,0,80.9,39.536Zm-2.757-.707a1,1,0,1,0,1.415,0A1,1,0,0,0,78.145,38.829Zm-3.343.707a1,1,0,1,0,1-1A1,1,0,0,0,74.8,39.536Zm-2.757-.707a1,1,0,1,0,1.415,0A1,1,0,0,0,72.046,38.829Zm-3.343.707a1,1,0,1,0,1-1A1,1,0,0,0,68.7,39.536Zm-2.757-.707a1,1,0,1,0,1.415,0A1,1,0,0,0,65.946,38.829Zm-3.343.707a1,1,0,1,0,1-1A1,1,0,0,0,62.6,39.536Zm-2.757-.707a1,1,0,1,0,1.415,0A1,1,0,0,0,59.847,38.829Zm-3.343.707a1,1,0,1,0,1-1A1,1,0,0,0,56.5,39.536Zm-2.757-.707a1,1,0,1,0,1.415,0A1,1,0,0,0,53.747,38.829Zm-3.343.707a1,1,0,1,0,1-1A1,1,0,0,0,50.4,39.536Zm-2.757-.707a1,1,0,1,0,1.415,0A1,1,0,0,0,47.648,38.829Zm-3.343.707a1,1,0,1,0,1-1A1,1,0,0,0,44.305,39.536Zm-2.757-.707a1,1,0,1,0,1.415,0A1,1,0,0,0,41.549,38.829Zm-3.343.707a1,1,0,1,0,1-1A1,1,0,0,0,38.206,39.536Zm-2.757-.707a1,1,0,1,0,1.415,0A1,1,0,0,0,35.449,38.829Zm-3.343.707a1,1,0,1,0,1-1A1,1,0,0,0,32.106,39.536Zm-2.757-.707a1,1,0,1,0,1.415,0A1,1,0,0,0,29.35,38.829Zm-3.343.707a1,1,0,1,0,1-1A1,1,0,0,0,26.007,39.536Zm-2.757-.707a1,1,0,1,0,1.415,0A1,1,0,0,0,23.25,38.829Zm-3.343.707a1,1,0,1,0,1-1A1,1,0,0,0,19.908,39.536Zm-2.757-.707a1,1,0,1,0,1.415,0A1,1,0,0,0,17.151,38.829Zm-3.343.707a1,1,0,1,0,1-1A1,1,0,0,0,13.808,39.536Zm-2.757-.707a1,1,0,1,0,1.415,0A1,1,0,0,0,11.051,38.829Zm-3.343.707a1,1,0,1,0,1-1A1,1,0,0,0,7.709,39.536Zm96.335-3.495a1,1,0,1,0,1.415,0A1,1,0,0,0,104.043,36.041Zm-3.343.707a1,1,0,1,0,1-1A1,1,0,0,0,100.7,36.749Zm-2.757-.707a1,1,0,1,0,1.415,0A1,1,0,0,0,97.944,36.041Zm-3.343.707a1,1,0,1,0,1-1A1,1,0,0,0,94.6,36.749Zm-2.757-.707a1,1,0,1,0,1.415,0A1,1,0,0,0,91.845,36.041Zm-3.343.707a1,1,0,1,0,1-1A1,1,0,0,0,88.5,36.749Zm-2.757-.707a1,1,0,1,0,1.415,0A1,1,0,0,0,85.745,36.041Zm-3.343.707a1,1,0,1,0,1-1A1,1,0,0,0,82.4,36.749Zm-2.757-.707a1,1,0,1,0,1.415,0A1,1,0,0,0,79.646,36.041Zm-3.343.707a1,1,0,1,0,1-1A1,1,0,0,0,76.3,36.749Zm-2.757-.707a1,1,0,1,0,1.415,0A1,1,0,0,0,73.546,36.041Zm-3.343.707a1,1,0,1,0,1-1A1,1,0,0,0,70.2,36.749Zm-2.757-.707a1,1,0,1,0,1.415,0A1,1,0,0,0,67.447,36.041Zm-3.343.707a1,1,0,1,0,1-1A1,1,0,0,0,64.1,36.749Zm-2.757-.707a1,1,0,1,0,1.415,0A1,1,0,0,0,61.347,36.041ZM58,36.749a1,1,0,1,0,1-1A1,1,0,0,0,58,36.749Zm-2.757-.707a1,1,0,1,0,1.415,0A1,1,0,0,0,55.248,36.041Zm-3.343.707a1,1,0,1,0,1-1A1,1,0,0,0,51.905,36.749Zm-2.757-.707a1,1,0,1,0,1.415,0A1,1,0,0,0,49.149,36.041Zm-3.343.707a1,1,0,1,0,1-1A1,1,0,0,0,45.806,36.749Zm-2.757-.707a1,1,0,1,0,1.415,0A1,1,0,0,0,43.049,36.041Zm-3.343.707a1,1,0,1,0,1-1A1,1,0,0,0,39.706,36.749Zm-2.757-.707a1,1,0,1,0,1.415,0A1,1,0,0,0,36.95,36.041Zm-3.343.707a1,1,0,1,0,1-1A1,1,0,0,0,33.607,36.749Zm-2.757-.707a1,1,0,1,0,1.415,0A1,1,0,0,0,30.85,36.041Zm-3.343.707a1,1,0,1,0,1-1A1,1,0,0,0,27.508,36.749Zm-2.757-.707a1,1,0,1,0,1.415,0A1,1,0,0,0,24.751,36.041Zm-3.343.707a1,1,0,1,0,1-1A1,1,0,0,0,21.408,36.749Zm-2.757-.707a1,1,0,1,0,1.415,0A1,1,0,0,0,18.652,36.041Zm-3.343.707a1,1,0,1,0,1-1A1,1,0,0,0,15.309,36.749Zm-2.757-.707a1,1,0,1,0,1.415,0A1,1,0,0,0,12.552,36.041Zm-3.343.707a1,1,0,1,0,1-1A1,1,0,0,0,9.209,36.749ZM102.543,44.4a1,1,0,1,0,1.415,0A1,1,0,0,0,102.543,44.4Zm-3.343.707a1,1,0,1,0,1-1A1,1,0,0,0,99.2,45.111ZM96.443,44.4a1,1,0,1,0,1.415,0A1,1,0,0,0,96.443,44.4Zm-3.343.707a1,1,0,1,0,1-1A1,1,0,0,0,93.1,45.111ZM90.344,44.4a1,1,0,1,0,1.415,0A1,1,0,0,0,90.344,44.4ZM87,45.111a1,1,0,1,0,1-1A1,1,0,0,0,87,45.111ZM84.244,44.4a1,1,0,1,0,1.415,0A1,1,0,0,0,84.244,44.4Zm-3.343.707a1,1,0,1,0,1-1A1,1,0,0,0,80.9,45.111ZM78.145,44.4a1,1,0,1,0,1.415,0A1,1,0,0,0,78.145,44.4Zm-3.343.707a1,1,0,1,0,1-1A1,1,0,0,0,74.8,45.111ZM72.046,44.4a1,1,0,1,0,1.415,0A1,1,0,0,0,72.046,44.4Zm-3.343.707a1,1,0,1,0,1-1A1,1,0,0,0,68.7,45.111ZM65.946,44.4a1,1,0,1,0,1.415,0A1,1,0,0,0,65.946,44.4Zm-3.343.707a1,1,0,1,0,1-1A1,1,0,0,0,62.6,45.111ZM59.847,44.4a1,1,0,1,0,1.415,0A1,1,0,0,0,59.847,44.4Zm-3.343.707a1,1,0,1,0,1-1A1,1,0,0,0,56.5,45.111ZM53.747,44.4a1,1,0,1,0,1.415,0A1,1,0,0,0,53.747,44.4Zm-3.343.707a1,1,0,1,0,1-1A1,1,0,0,0,50.4,45.111ZM47.648,44.4a1,1,0,1,0,1.415,0A1,1,0,0,0,47.648,44.4Zm-3.343.707a1,1,0,1,0,1-1A1,1,0,0,0,44.305,45.111ZM41.549,44.4a1,1,0,1,0,1.415,0A1,1,0,0,0,41.549,44.4Zm-3.343.707a1,1,0,1,0,1-1A1,1,0,0,0,38.206,45.111ZM35.449,44.4a1,1,0,1,0,1.415,0A1,1,0,0,0,35.449,44.4Zm-3.343.707a1,1,0,1,0,1-1A1,1,0,0,0,32.106,45.111ZM29.35,44.4a1,1,0,1,0,1.415,0A1,1,0,0,0,29.35,44.4Zm-3.343.707a1,1,0,1,0,1-1A1,1,0,0,0,26.007,45.111ZM23.25,44.4a1,1,0,1,0,1.415,0A1,1,0,0,0,23.25,44.4Zm-3.343.707a1,1,0,1,0,1-1A1,1,0,0,0,19.908,45.111ZM17.151,44.4a1,1,0,1,0,1.415,0A1,1,0,0,0,17.151,44.4Zm-3.343.707a1,1,0,1,0,1-1A1,1,0,0,0,13.808,45.111ZM11.051,44.4a1,1,0,1,0,1.415,0A1,1,0,0,0,11.051,44.4Zm-3.343.707a1,1,0,1,0,1-1A1,1,0,0,0,7.709,45.111Zm96.335-3.495a1,1,0,1,0,1.415,0A1,1,0,0,0,104.043,41.616Zm-3.343.707a1,1,0,1,0,1-1A1,1,0,0,0,100.7,42.324Zm-2.757-.707a1,1,0,1,0,1.415,0A1,1,0,0,0,97.944,41.616Zm-3.343.707a1,1,0,1,0,1-1A1,1,0,0,0,94.6,42.324Zm-2.757-.707a1,1,0,1,0,1.415,0A1,1,0,0,0,91.845,41.616Zm-3.343.707a1,1,0,1,0,1-1A1,1,0,0,0,88.5,42.324Zm-2.757-.707a1,1,0,1,0,1.415,0A1,1,0,0,0,85.745,41.616Zm-3.343.707a1,1,0,1,0,1-1A1,1,0,0,0,82.4,42.324Zm-2.757-.707a1,1,0,1,0,1.415,0A1,1,0,0,0,79.646,41.616Zm-3.343.707a1,1,0,1,0,1-1A1,1,0,0,0,76.3,42.324Zm-2.757-.707a1,1,0,1,0,1.415,0A1,1,0,0,0,73.546,41.616Zm-3.343.707a1,1,0,1,0,1-1A1,1,0,0,0,70.2,42.324Zm-2.757-.707a1,1,0,1,0,1.415,0A1,1,0,0,0,67.447,41.616Zm-3.343.707a1,1,0,1,0,1-1A1,1,0,0,0,64.1,42.324Zm-2.757-.707a1,1,0,1,0,1.415,0A1,1,0,0,0,61.347,41.616ZM58,42.324a1,1,0,1,0,1-1A1,1,0,0,0,58,42.324Zm-2.757-.707a1,1,0,1,0,1.415,0A1,1,0,0,0,55.248,41.616Zm-3.343.707a1,1,0,1,0,1-1A1,1,0,0,0,51.905,42.324Zm-2.757-.707a1,1,0,1,0,1.415,0A1,1,0,0,0,49.149,41.616Zm-3.343.707a1,1,0,1,0,1-1A1,1,0,0,0,45.806,42.324Zm-2.757-.707a1,1,0,1,0,1.415,0A1,1,0,0,0,43.049,41.616Zm-3.343.707a1,1,0,1,0,1-1A1,1,0,0,0,39.706,42.324Zm-2.757-.707a1,1,0,1,0,1.415,0A1,1,0,0,0,36.95,41.616Zm-3.343.707a1,1,0,1,0,1-1A1,1,0,0,0,33.607,42.324Zm-2.757-.707a1,1,0,1,0,1.415,0A1,1,0,0,0,30.85,41.616Zm-3.343.707a1,1,0,1,0,1-1A1,1,0,0,0,27.508,42.324Zm-2.757-.707a1,1,0,1,0,1.415,0A1,1,0,0,0,24.751,41.616Zm-3.343.707a1,1,0,1,0,1-1A1,1,0,0,0,21.408,42.324Zm-2.757-.707a1,1,0,1,0,1.415,0A1,1,0,0,0,18.652,41.616Zm-3.343.707a1,1,0,1,0,1-1A1,1,0,0,0,15.309,42.324Zm-2.757-.707a1,1,0,1,0,1.415,0A1,1,0,0,0,12.552,41.616Zm-3.343.707a1,1,0,1,0,1-1A1,1,0,0,0,9.209,42.324Zm93.333,7.655a1,1,0,1,0,1.415,0A1,1,0,0,0,102.543,49.978Zm-3.343.707a1,1,0,1,0,1-1A1,1,0,0,0,99.2,50.686Zm-2.757-.707a1,1,0,1,0,1.415,0A1,1,0,0,0,96.443,49.978Zm-3.343.707a1,1,0,1,0,1-1A1,1,0,0,0,93.1,50.686Zm-2.757-.707a1,1,0,1,0,1.415,0A1,1,0,0,0,90.344,49.978ZM87,50.686a1,1,0,1,0,1-1A1,1,0,0,0,87,50.686Zm-2.757-.707a1,1,0,1,0,1.415,0A1,1,0,0,0,84.244,49.978Zm-3.343.707a1,1,0,1,0,1-1A1,1,0,0,0,80.9,50.686Zm-2.757-.707a1,1,0,1,0,1.415,0A1,1,0,0,0,78.145,49.978Zm-3.343.707a1,1,0,1,0,1-1A1,1,0,0,0,74.8,50.686Zm-2.757-.707a1,1,0,1,0,1.415,0A1,1,0,0,0,72.046,49.978Zm-3.343.707a1,1,0,1,0,1-1A1,1,0,0,0,68.7,50.686Zm-2.757-.707a1,1,0,1,0,1.415,0A1,1,0,0,0,65.946,49.978Zm-3.343.707a1,1,0,1,0,1-1A1,1,0,0,0,62.6,50.686Zm-2.757-.707a1,1,0,1,0,1.415,0A1,1,0,0,0,59.847,49.978Zm-3.343.707a1,1,0,1,0,1-1A1,1,0,0,0,56.5,50.686Zm-2.757-.707a1,1,0,1,0,1.415,0A1,1,0,0,0,53.747,49.978Zm-3.343.707a1,1,0,1,0,1-1A1,1,0,0,0,50.4,50.686Zm-2.757-.707a1,1,0,1,0,1.415,0A1,1,0,0,0,47.648,49.978Zm-3.343.707a1,1,0,1,0,1-1A1,1,0,0,0,44.305,50.686Zm-2.757-.707a1,1,0,1,0,1.415,0A1,1,0,0,0,41.549,49.978Zm-3.343.707a1,1,0,1,0,1-1A1,1,0,0,0,38.206,50.686Zm-2.757-.707a1,1,0,1,0,1.415,0A1,1,0,0,0,35.449,49.978Zm-3.343.707a1,1,0,1,0,1-1A1,1,0,0,0,32.106,50.686Zm-2.757-.707a1,1,0,1,0,1.415,0A1,1,0,0,0,29.35,49.978Zm-3.343.707a1,1,0,1,0,1-1A1,1,0,0,0,26.007,50.686Zm-2.757-.707a1,1,0,1,0,1.415,0A1,1,0,0,0,23.25,49.978Zm-3.343.707a1,1,0,1,0,1-1A1,1,0,0,0,19.908,50.686Zm-2.757-.707a1,1,0,1,0,1.415,0A1,1,0,0,0,17.151,49.978Zm-3.343.707a1,1,0,1,0,1-1A1,1,0,0,0,13.808,50.686Zm-2.757-.707a1,1,0,1,0,1.415,0A1,1,0,0,0,11.051,49.978Zm-3.343.707a1,1,0,1,0,1-1A1,1,0,0,0,7.709,50.686Zm96.335-3.495a1,1,0,1,0,1.415,0A1,1,0,0,0,104.043,47.191ZM100.7,47.9a1,1,0,1,0,1-1A1,1,0,0,0,100.7,47.9Zm-2.757-.707a1,1,0,1,0,1.415,0A1,1,0,0,0,97.944,47.191ZM94.6,47.9a1,1,0,1,0,1-1A1,1,0,0,0,94.6,47.9Zm-2.757-.707a1,1,0,1,0,1.415,0A1,1,0,0,0,91.845,47.191ZM88.5,47.9a1,1,0,1,0,1-1A1,1,0,0,0,88.5,47.9Zm-2.757-.707a1,1,0,1,0,1.415,0A1,1,0,0,0,85.745,47.191ZM82.4,47.9a1,1,0,1,0,1-1A1,1,0,0,0,82.4,47.9Zm-2.757-.707a1,1,0,1,0,1.415,0A1,1,0,0,0,79.646,47.191ZM76.3,47.9a1,1,0,1,0,1-1A1,1,0,0,0,76.3,47.9Zm-2.757-.707a1,1,0,1,0,1.415,0A1,1,0,0,0,73.546,47.191ZM70.2,47.9a1,1,0,1,0,1-1A1,1,0,0,0,70.2,47.9Zm-2.757-.707a1,1,0,1,0,1.415,0A1,1,0,0,0,67.447,47.191ZM64.1,47.9a1,1,0,1,0,1-1A1,1,0,0,0,64.1,47.9Zm-2.757-.707a1,1,0,1,0,1.415,0A1,1,0,0,0,61.347,47.191ZM58,47.9a1,1,0,1,0,1-1A1,1,0,0,0,58,47.9Zm-2.757-.707a1,1,0,1,0,1.415,0A1,1,0,0,0,55.248,47.191Zm-3.343.707a1,1,0,1,0,1-1A1,1,0,0,0,51.905,47.9Zm-2.757-.707a1,1,0,1,0,1.415,0A1,1,0,0,0,49.149,47.191Zm-3.343.707a1,1,0,1,0,1-1A1,1,0,0,0,45.806,47.9Zm-2.757-.707a1,1,0,1,0,1.415,0A1,1,0,0,0,43.049,47.191Zm-3.343.707a1,1,0,1,0,1-1A1,1,0,0,0,39.706,47.9Zm-2.757-.707a1,1,0,1,0,1.415,0A1,1,0,0,0,36.95,47.191Zm-3.343.707a1,1,0,1,0,1-1A1,1,0,0,0,33.607,47.9Zm-2.757-.707a1,1,0,1,0,1.415,0A1,1,0,0,0,30.85,47.191Zm-3.343.707a1,1,0,1,0,1-1A1,1,0,0,0,27.508,47.9Zm-2.757-.707a1,1,0,1,0,1.415,0A1,1,0,0,0,24.751,47.191Zm-3.343.707a1,1,0,1,0,1-1A1,1,0,0,0,21.408,47.9Zm-2.757-.707a1,1,0,1,0,1.415,0A1,1,0,0,0,18.652,47.191Zm-3.343.707a1,1,0,1,0,1-1A1,1,0,0,0,15.309,47.9Zm-2.757-.707a1,1,0,1,0,1.415,0A1,1,0,0,0,12.552,47.191ZM9.209,47.9a1,1,0,1,0,1-1A1,1,0,0,0,9.209,47.9Zm93.333,7.655a1,1,0,1,0,1.415,0A1,1,0,0,0,102.543,55.553Zm-3.343.707a1,1,0,1,0,1-1A1,1,0,0,0,99.2,56.261Zm-2.757-.707a1,1,0,1,0,1.415,0A1,1,0,0,0,96.443,55.553Zm-3.343.707a1,1,0,1,0,1-1A1,1,0,0,0,93.1,56.261Zm-2.757-.707a1,1,0,1,0,1.415,0A1,1,0,0,0,90.344,55.553ZM87,56.261a1,1,0,1,0,1-1A1,1,0,0,0,87,56.261Zm-2.757-.707a1,1,0,1,0,1.415,0A1,1,0,0,0,84.244,55.553Zm-3.343.707a1,1,0,1,0,1-1A1,1,0,0,0,80.9,56.261Zm-2.757-.707a1,1,0,1,0,1.415,0A1,1,0,0,0,78.145,55.553Zm-3.343.707a1,1,0,1,0,1-1A1,1,0,0,0,74.8,56.261Zm-2.757-.707a1,1,0,1,0,1.415,0A1,1,0,0,0,72.046,55.553Zm-3.343.707a1,1,0,1,0,1-1A1,1,0,0,0,68.7,56.261Zm-2.757-.707a1,1,0,1,0,1.415,0A1,1,0,0,0,65.946,55.553Zm-3.343.707a1,1,0,1,0,1-1A1,1,0,0,0,62.6,56.261Zm-2.757-.707a1,1,0,1,0,1.415,0A1,1,0,0,0,59.847,55.553Zm-3.343.707a1,1,0,1,0,1-1A1,1,0,0,0,56.5,56.261Zm-2.757-.707a1,1,0,1,0,1.415,0A1,1,0,0,0,53.747,55.553Zm-3.343.707a1,1,0,1,0,1-1A1,1,0,0,0,50.4,56.261Zm-2.757-.707a1,1,0,1,0,1.415,0A1,1,0,0,0,47.648,55.553Zm-3.343.707a1,1,0,1,0,1-1A1,1,0,0,0,44.305,56.261Zm-2.757-.707a1,1,0,1,0,1.415,0A1,1,0,0,0,41.549,55.553Zm-3.343.707a1,1,0,1,0,1-1A1,1,0,0,0,38.206,56.261Zm-2.757-.707a1,1,0,1,0,1.415,0A1,1,0,0,0,35.449,55.553Zm-3.343.707a1,1,0,1,0,1-1A1,1,0,0,0,32.106,56.261Zm-2.757-.707a1,1,0,1,0,1.415,0A1,1,0,0,0,29.35,55.553Zm-3.343.707a1,1,0,1,0,1-1A1,1,0,0,0,26.007,56.261Zm-2.757-.707a1,1,0,1,0,1.415,0A1,1,0,0,0,23.25,55.553Zm-3.343.707a1,1,0,1,0,1-1A1,1,0,0,0,19.908,56.261Zm-2.757-.707a1,1,0,1,0,1.415,0A1,1,0,0,0,17.151,55.553Zm-3.343.707a1,1,0,1,0,1-1A1,1,0,0,0,13.808,56.261Zm-2.757-.707a1,1,0,1,0,1.415,0A1,1,0,0,0,11.051,55.553Zm-3.343.707a1,1,0,1,0,1-1A1,1,0,0,0,7.709,56.261Zm96.335-3.495a1,1,0,1,0,1.415,0A1,1,0,0,0,104.043,52.766Zm-3.343.707a1,1,0,1,0,1-1A1,1,0,0,0,100.7,53.473Zm-2.757-.707a1,1,0,1,0,1.415,0A1,1,0,0,0,97.944,52.766Zm-3.343.707a1,1,0,1,0,1-1A1,1,0,0,0,94.6,53.473Zm-2.757-.707a1,1,0,1,0,1.415,0A1,1,0,0,0,91.845,52.766Zm-3.343.707a1,1,0,1,0,1-1A1,1,0,0,0,88.5,53.473Zm-2.757-.707a1,1,0,1,0,1.415,0A1,1,0,0,0,85.745,52.766Zm-3.343.707a1,1,0,1,0,1-1A1,1,0,0,0,82.4,53.473Zm-2.757-.707a1,1,0,1,0,1.415,0A1,1,0,0,0,79.646,52.766Zm-3.343.707a1,1,0,1,0,1-1A1,1,0,0,0,76.3,53.473Zm-2.757-.707a1,1,0,1,0,1.415,0A1,1,0,0,0,73.546,52.766Zm-3.343.707a1,1,0,1,0,1-1A1,1,0,0,0,70.2,53.473Zm-2.757-.707a1,1,0,1,0,1.415,0A1,1,0,0,0,67.447,52.766Zm-3.343.707a1,1,0,1,0,1-1A1,1,0,0,0,64.1,53.473Zm-2.757-.707a1,1,0,1,0,1.415,0A1,1,0,0,0,61.347,52.766ZM58,53.473a1,1,0,1,0,1-1A1,1,0,0,0,58,53.473Zm-2.757-.707a1,1,0,1,0,1.415,0A1,1,0,0,0,55.248,52.766Zm-3.343.707a1,1,0,1,0,1-1A1,1,0,0,0,51.905,53.473Zm-2.757-.707a1,1,0,1,0,1.415,0A1,1,0,0,0,49.149,52.766Zm-3.343.707a1,1,0,1,0,1-1A1,1,0,0,0,45.806,53.473Zm-2.757-.707a1,1,0,1,0,1.415,0A1,1,0,0,0,43.049,52.766Zm-3.343.707a1,1,0,1,0,1-1A1,1,0,0,0,39.706,53.473Zm-2.757-.707a1,1,0,1,0,1.415,0A1,1,0,0,0,36.95,52.766Zm-3.343.707a1,1,0,1,0,1-1A1,1,0,0,0,33.607,53.473Zm-2.757-.707a1,1,0,1,0,1.415,0A1,1,0,0,0,30.85,52.766Zm-3.343.707a1,1,0,1,0,1-1A1,1,0,0,0,27.508,53.473Zm-2.757-.707a1,1,0,1,0,1.415,0A1,1,0,0,0,24.751,52.766Zm-3.343.707a1,1,0,1,0,1-1A1,1,0,0,0,21.408,53.473Zm-2.757-.707a1,1,0,1,0,1.415,0A1,1,0,0,0,18.652,52.766Zm-3.343.707a1,1,0,1,0,1-1A1,1,0,0,0,15.309,53.473Zm-2.757-.707a1,1,0,1,0,1.415,0A1,1,0,0,0,12.552,52.766Zm-3.343.707a1,1,0,1,0,1-1A1,1,0,0,0,9.209,53.473Z" fill="#3f5d88"/>
      </g>
      <g>
        <path d="M.973,11.991V23.835H4.921v7.9H6.895v30.6a4.94,4.94,0,0,0,4.935,4.935h45.4a4.94,4.94,0,0,0,4.935-4.935V11a4.94,4.94,0,0,0-4.935-4.935H25.649A4.94,4.94,0,0,0,20.713,11V62.33a4.883,4.883,0,0,0,1.013,2.961h-2a2.965,2.965,0,0,1-2.961-2.961v-30.6h1.974V16.926A4.94,4.94,0,0,0,13.8,11.991H8.869V13a4.883,4.883,0,0,0-2.961-1.013ZM22.687,59.368H60.195V62.33a2.965,2.965,0,0,1-2.961,2.961H25.649a2.965,2.965,0,0,1-2.961-2.961Zm0-45.4H60.195V57.394H22.687Zm0-2.961a2.965,2.965,0,0,1,2.961-2.961H57.234A2.965,2.965,0,0,1,60.195,11v.987H22.687ZM16.765,29.757H14.791v-7.9H10.843v-7.9H13.8a2.965,2.965,0,0,1,2.961,2.961Zm-7.9,1.974h1.974v-7.9h1.974v7.9h1.974v30.6A4.883,4.883,0,0,0,15.8,65.291H11.83A2.965,2.965,0,0,1,8.869,62.33ZM2.947,13.965H5.908a2.965,2.965,0,0,1,2.961,2.961V29.757H6.895v-7.9H2.947Z" fill="#3f5d88"/>
        <rect x="35.519" y="61.342" width="11.844" height="1.974" fill="#3f5d88"/>
      </g>
    </g>
    <g clip-path="url(#b)">
      <path d="M50.427,19.4V40.89a8.074,8.074,0,0,0-3.226-.67c-4.043,0-7.332,2.939-7.332,6.55s3.289,6.55,7.332,6.55,7.332-2.939,7.332-6.55V28.086l20.388-5V34.874A8.074,8.074,0,0,0,71.7,34.2c-4.043,0-7.332,2.939-7.332,6.55S67.652,47.3,71.7,47.3s7.332-2.938,7.332-6.55V12.365Zm26.84,21.357c0,2.641-2.5,4.79-5.572,4.79s-5.572-2.149-5.572-4.79,2.5-4.79,5.572-4.79A6.133,6.133,0,0,1,75.283,37.1l1.4,1.016V20.837L52.774,26.708V46.77c0,2.641-2.5,4.79-5.572,4.79s-5.572-2.149-5.572-4.79,2.5-4.79,5.572-4.79a6.134,6.134,0,0,1,3.588,1.131l1.4,1.016V20.774l25.081-6.161Z" fill="#3f5d88"/>
      <path d="M77.268,14.614v26.14c0,2.641-2.5,4.79-5.572,4.79s-5.572-2.149-5.572-4.79,2.5-4.79,5.572-4.79A6.133,6.133,0,0,1,75.283,37.1l1.4,1.016V20.837L52.774,26.708V46.77c0,2.641-2.5,4.79-5.572,4.79s-5.572-2.149-5.572-4.79,2.5-4.79,5.572-4.79a6.134,6.134,0,0,1,3.588,1.131l1.4,1.016V20.774Z" fill="#78cbc2"/>
    </g>
  </g>
</svg>
